<svg width="74" height="70" viewBox="0 0 74 70" fill="none" xmlns="http://www.w3.org/2000/svg">
  <path d="M0.160034 46.1901C0.160034 19.9101 0.160034 6.53006 0.160034 6.05006C0.160034 2.89006 2.73005 0.320068 5.89005 0.320068C12.06 0.320068 61.37 0.320068 67.54 0.320068C70.71 0.320068 73.27 2.89006 73.27 6.05006C73.27 10.0701 73.27 42.1801 73.27 46.1901C73.27 49.3601 70.71 51.9301 67.54 51.9301C66.87 51.9301 63.53 51.9301 57.5 51.9301C59.52 61.3201 60.63 66.54 60.86 67.58C61.15 68.95 59.51 69.8801 58.48 68.9301C57.46 67.9901 52.36 63.28 43.17 54.8C20.8 54.8 8.38005 54.8 5.89005 54.8C2.73005 54.8 0.160034 52.2301 0.160034 49.0601C0.160034 48.8701 0.160034 47.9101 0.160034 46.1901Z" fill="url(#paint0_linear)" />
  <defs>
    <linearGradient id="paint0_linear" x1="0.160034" y1="0.320068" x2="58.94" y2="70.3201" gradientUnits="userSpaceOnUse">
      <stop stop-color="#485BFF" />
      <stop offset="1" stop-color="#FF59F8" />
    </linearGradient>
  </defs>
</svg>
